<?xml version="1.0" encoding="UTF-8" standalone="no"?>
<!-- Created with Inkscape (http://www.inkscape.org/) -->

<svg
   width="88.34053mm"
   height="79.107643mm"
   viewBox="0 0 88.34053 79.107643"
   version="1.1"
   id="svg5"
   inkscape:export-filename="C:\Users\stedi\Desktop\plan_it\assets\images\cards\aereo.png"
   inkscape:export-xdpi="349.85999"
   inkscape:export-ydpi="349.85999"
   inkscape:version="1.1 (c68e22c387, 2021-05-23)"
   sodipodi:docname="aereo.svg"
   xmlns:inkscape="http://www.inkscape.org/namespaces/inkscape"
   xmlns:sodipodi="http://sodipodi.sourceforge.net/DTD/sodipodi-0.dtd"
   xmlns="http://www.w3.org/2000/svg"
   xmlns:svg="http://www.w3.org/2000/svg">
  <sodipodi:namedview
     id="namedview7"
     pagecolor="#ffffff"
     bordercolor="#666666"
     borderopacity="1.0"
     inkscape:pageshadow="2"
     inkscape:pageopacity="0.0"
     inkscape:pagecheckerboard="0"
     inkscape:document-units="mm"
     showgrid="false"
     inkscape:zoom="0.9700894"
     inkscape:cx="237.60697"
     inkscape:cy="59.788304"
     inkscape:window-width="1920"
     inkscape:window-height="974"
     inkscape:window-x="-11"
     inkscape:window-y="-11"
     inkscape:window-maximized="1"
     inkscape:current-layer="layer3" />
  <defs
     id="defs2">
    <linearGradient
       id="linearGradient10970"
       inkscape:swatch="solid">
      <stop
         style="stop-color:#f9f9f9;stop-opacity:1;"
         offset="0"
         id="stop10968" />
    </linearGradient>
  </defs>
  <g
     inkscape:groupmode="layer"
     id="layer4"
     inkscape:label="Livello 4"
     transform="translate(-57.600447,-107.85071)" />
  <g
     inkscape:label="Livello 1"
     inkscape:groupmode="layer"
     id="layer1"
     style="display:inline"
     transform="translate(-57.600447,-107.85071)" />
  <g
     inkscape:groupmode="layer"
     id="layer2"
     inkscape:label="Livello 2"
     transform="translate(-57.600447,-107.85071)" />
  <g
     inkscape:groupmode="layer"
     id="layer3"
     inkscape:label="Livello 3"
     transform="translate(-57.600447,-107.85071)">
    <path
       style="fill:#f7ae2b;fill-opacity:1;stroke:none;stroke-width:0.264583px;stroke-linecap:butt;stroke-linejoin:miter;stroke-opacity:1"
       d="m 111.58929,165.56333 c 1.03928,1.25623 1.27564,1.6075 2.15967,2.65596 0.95339,1.13072 3.06189,-0.54122 4.16705,-1.52412 1.61806,-1.43905 4.15301,-4.01311 2.9282,-5.79885 -1.12195,-1.63578 -4.11346,-0.22661 -5.92146,0.5893 -1.55616,0.70227 -4.42175,2.76223 -3.33346,4.07771 z"
       id="path28379"
       sodipodi:nodetypes="ssssss" />
    <path
       style="fill:#f7ae2b;fill-opacity:1;stroke:none;stroke-width:0.264583px;stroke-linecap:butt;stroke-linejoin:miter;stroke-opacity:1"
       d="m 83.389473,128.63802 c 1.03928,1.25623 1.27564,1.60751 2.159676,2.65597 0.953387,1.13071 3.061886,-0.54122 4.167043,-1.52412 1.618064,-1.43906 4.153018,-4.01312 2.928203,-5.79886 -1.121953,-1.63578 -4.113458,-0.22661 -5.921455,0.5893 -1.55616,0.70227 -4.421754,2.76223 -3.333467,4.07771 z"
       id="path28379-6"
       sodipodi:nodetypes="ssssss" />
    <path
       style="display:inline;fill:#3c8581;fill-opacity:1;stroke:none;stroke-width:2.3;stroke-linecap:butt;stroke-linejoin:miter;stroke-miterlimit:4;stroke-dasharray:none;stroke-opacity:1"
       d="m 100.36889,136.15895 c 0,0 -21.52065,-14.7384 -31.417624,-21.8054 -1.047129,-1.52814 6.313597,-6.19731 7.14948,-6.18637 2.801988,0.14001 43.794874,11.36811 43.794874,11.36811"
       id="path2437"
       sodipodi:nodetypes="cccc" />
    <path
       style="display:inline;fill:#3c8581;fill-opacity:1;stroke:none;stroke-width:2.3;stroke-linecap:butt;stroke-linejoin:miter;stroke-miterlimit:4;stroke-dasharray:none;stroke-opacity:1"
       d="m 75.510271,161.49908 c -3.248292,-2.4248 -13.998077,-10.35808 -17.866979,-12.99467 -0.476749,-0.70636 3.17395,-3.06979 3.578012,-3.08083 1.195839,0.0107 19.105152,4.11241 23.084611,5.01281 0.521139,0.11791 -4.774652,4.65259 -4.774652,4.65259 0,0 -1.741879,1.93898 -2.670044,3.60947 -0.91995,1.65568 -1.024785,3.04411 -1.350948,2.80063 z"
       id="path2437-1"
       sodipodi:nodetypes="sccscss" />
    <path
       style="display:inline;fill:#3c8581;fill-opacity:1;stroke:none;stroke-width:2.3;stroke-linecap:butt;stroke-linejoin:miter;stroke-miterlimit:4;stroke-dasharray:none;stroke-opacity:1"
       d="m 80.939698,166.73703 c 1.711333,3.67455 7.28542,15.8164 9.077517,20.14172 0.594278,0.61079 3.652607,-2.48115 3.745817,-2.87446 0.233389,-1.1729 -0.129424,-19.54232 -0.199278,-23.62177 -0.0092,-0.53423 -5.680694,3.53835 -5.680694,3.53835 0,0 -1.949492,1.1869 -3.774166,1.75486 -1.80851,0.56293 -3.341034,0.69233 -3.169196,1.0613 z"
       id="path2437-1-1"
       sodipodi:nodetypes="sccscss" />
    <path
       style="display:inline;fill:#3c8581;fill-opacity:1;stroke:none;stroke-width:2.3;stroke-linecap:butt;stroke-linejoin:miter;stroke-miterlimit:4;stroke-dasharray:none;stroke-opacity:1"
       d="m 110.07386,148.59897 c 0,0 8.65503,24.45423 13.55498,35.58451 1.28245,1.33678 7.35473,-4.91694 7.51449,-5.73748 0.43441,-2.77165 -1.14929,-45.05064 -1.14929,-45.05064"
       id="path2437-9"
       sodipodi:nodetypes="cccc" />
    <path
       style="fill:#3c8581;fill-opacity:0.54902;stroke:#000000;stroke-width:0.2;stroke-linecap:butt;stroke-linejoin:miter;stroke-miterlimit:4;stroke-dasharray:none;stroke-opacity:1"
       d="m 91.474676,161.61704 c 19.088974,-12.60469 39.728514,-28.96375 48.472564,-36.6807 2.47144,-2.18113 4.28789,-6.66315 5.20383,-10.0732 0.60833,-2.26481 1.24446,-3.5341 -0.12998,-5.23812 -1.44989,-1.79734 -3.53756,-1.73313 -5.81508,-1.63222 -3.08564,0.13671 -6.4959,0.94446 -8.91847,2.92419 -9.44893,7.72171 -32.095882,26.50803 -47.713045,41.28304 -3.726895,3.52592 -9.278965,8.88678 -6.057046,12.87941 3.189383,3.95232 10.719126,-0.66393 14.957227,-3.4624 z"
       id="path870-5"
       sodipodi:nodetypes="sssssssss" />
    <path
       style="fill:#000000;fill-opacity:1;stroke:#b78120;stroke-width:0.165;stroke-linecap:butt;stroke-linejoin:miter;stroke-miterlimit:4;stroke-dasharray:none;stroke-opacity:1"
       d="m 84.510457,127.23084 3.109622,3.7478"
       id="path39785" />
    <path
       style="fill:#000000;fill-opacity:1;stroke:#b78120;stroke-width:0.165;stroke-linecap:butt;stroke-linejoin:miter;stroke-miterlimit:4;stroke-dasharray:none;stroke-opacity:1"
       d="m 111.95974,163.61573 3.10961,3.7478"
       id="path39785-0" />
    <path
       style="display:inline;fill:#d5f6ff;fill-opacity:1;stroke:#000000;stroke-width:0.265;stroke-linecap:round;stroke-linejoin:miter;stroke-miterlimit:4;stroke-dasharray:none;stroke-opacity:1"
       d="m 131.95969,113.30554 c 0.65298,-0.10998 1.88438,-0.25822 2.97475,-0.0563 1.5521,0.28742 2.80787,1.29953 3.26872,1.89997 0.6679,0.87021 0.98958,2.34197 0.85476,3.96464 -0.04,0.48178 -0.33498,1.67066 -0.48384,2.24951 -0.0514,0.20001 -3.58226,-3.82039 -3.58226,-3.82039 0,0 -3.32112,-4.18877 -3.03213,-4.23743 z"
       id="path3481"
       sodipodi:nodetypes="ssssscs" />
    <path
       style="display:inline;fill:#000000;fill-opacity:1;stroke:#3c8581;stroke-width:1.965;stroke-linecap:butt;stroke-linejoin:miter;stroke-miterlimit:4;stroke-dasharray:none;stroke-opacity:1"
       d="M 72.952925,168.01393 85.636286,157.34907"
       id="path4617" />
    <path
       style="fill:#d5f6ff;stroke:#000000;stroke-width:0.264583px;stroke-linecap:butt;stroke-linejoin:miter;stroke-opacity:1"
       d="m 117.5324,121.58004 c 0,0 1.41964,1.59641 1.67083,2.54117 0.16737,0.62946 0.0695,1.37689 -0.42763,1.79777 -0.55971,0.47394 -1.11959,0.407 -1.77773,0.0834 -0.90762,-0.4463 -2.17508,-2.17506 -2.17508,-2.17506"
       id="path15605-9"
       sodipodi:nodetypes="csssc" />
    <path
       style="fill:#d5f6ff;stroke:#000000;stroke-width:0.264583px;stroke-linecap:butt;stroke-linejoin:miter;stroke-opacity:1"
       d="m 111.34828,126.80554 c 0,0 1.47287,1.66187 1.72406,2.60663 0.16737,0.62946 0.0695,1.37689 -0.42762,1.79777 -0.55972,0.47394 -1.11959,0.407 -1.77774,0.0834 -0.90762,-0.4463 -2.21192,-2.19171 -2.21192,-2.19171"
       id="path15605-9-3"
       sodipodi:nodetypes="csssc" />
    <path
       style="fill:#d5f6ff;stroke:#000000;stroke-width:0.264583px;stroke-linecap:butt;stroke-linejoin:miter;stroke-opacity:1"
       d="m 105.26392,132.05172 c 0,0 1.47287,1.66187 1.72406,2.60663 0.16737,0.62946 0.0695,1.37689 -0.42762,1.79777 -0.55972,0.47394 -1.11959,0.407 -1.77774,0.0834 -0.90762,-0.4463 -2.21192,-2.19171 -2.21192,-2.19171"
       id="path15605-9-3-7"
       sodipodi:nodetypes="csssc"
       inkscape:transform-center-x="0.034093468"
       inkscape:transform-center-y="0.098610609" />
    <path
       style="fill:#d5f6ff;stroke:#000000;stroke-width:0.264583px;stroke-linecap:butt;stroke-linejoin:miter;stroke-opacity:1"
       d="m 127.78601,134.79387 c 0,0 -1.27331,-1.71539 -2.14698,-2.15399 -0.5821,-0.29223 -1.33378,-0.34882 -1.8472,0.052 -0.57813,0.45129 -0.62679,1.01305 -0.44419,1.72336 0.25181,0.97957 1.68573,2.57298 1.68573,2.57298"
       id="path15605-9-5"
       sodipodi:nodetypes="csssc" />
    <path
       style="fill:#d5f6ff;stroke:#000000;stroke-width:0.264583px;stroke-linecap:butt;stroke-linejoin:miter;stroke-opacity:1"
       d="m 121.40909,139.78225 c 0,0 -1.32655,-1.78085 -2.20022,-2.21945 -0.5821,-0.29223 -1.33378,-0.34883 -1.8472,0.052 -0.57813,0.45128 -0.62678,1.01305 -0.44419,1.72336 0.25181,0.97957 1.69452,2.61244 1.69452,2.61244"
       id="path15605-9-3-9"
       sodipodi:nodetypes="csssc" />
    <path
       style="fill:#d5f6ff;stroke:#000000;stroke-width:0.264583px;stroke-linecap:butt;stroke-linejoin:miter;stroke-opacity:1"
       d="m 115.03225,144.66876 c 0,0 -1.32654,-1.78086 -2.20022,-2.21945 -0.58209,-0.29223 -1.33378,-0.34882 -1.8472,0.052 -0.57814,0.45129 -0.6268,1.01306 -0.4442,1.72337 0.25181,0.97956 1.69452,2.61244 1.69452,2.61244"
       id="path15605-9-3-7-6"
       sodipodi:nodetypes="csssc"
       inkscape:transform-center-x="0.034093468"
       inkscape:transform-center-y="-0.098609566" />
    <path
       style="fill:#b3b3b3;stroke:#cccccc;stroke-width:0.665;stroke-linecap:round;stroke-linejoin:miter;stroke-miterlimit:4;stroke-dasharray:none;stroke-opacity:1"
       d="M 81.099442,130.6979 66.992061,142.54201"
       id="path27379" />
    <path
       style="fill:#e6e6e6;stroke:#cccccc;stroke-width:0.665;stroke-linecap:round;stroke-linejoin:miter;stroke-miterlimit:4;stroke-dasharray:none;stroke-opacity:1"
       d="m 80.834584,135.26321 -7.68717,6.74788"
       id="path27381" />
    <path
       style="fill:#000000;stroke:#cccccc;stroke-width:0.665;stroke-linecap:round;stroke-linejoin:miter;stroke-miterlimit:4;stroke-dasharray:none;stroke-opacity:1"
       d="M 112.47546,169.35333 98.003066,180.74855"
       id="path27379-1" />
    <path
       style="fill:#000000;stroke:#cccccc;stroke-width:0.665;stroke-linecap:round;stroke-linejoin:miter;stroke-miterlimit:4;stroke-dasharray:none;stroke-opacity:1"
       d="m 107.95208,168.68151 -8.173852,6.14935"
       id="path27381-8" />
    <path
       style="fill:#ffffff;fill-opacity:1;fill-rule:evenodd;stroke:#ffffff;stroke-width:0.665001;stroke-linecap:round;stroke-linejoin:round;stroke-miterlimit:4;stroke-dasharray:none;stroke-opacity:1"
       id="path27770"
       sodipodi:type="arc"
       sodipodi:cx="-172.34186"
       sodipodi:cy="-107.07635"
       sodipodi:rx="2.0832255"
       sodipodi:ry="1.2624321"
       sodipodi:start="0.13669053"
       sodipodi:end="3.1498307"
       sodipodi:arc-type="slice"
       transform="matrix(-0.99900471,-0.04460476,0.29569908,-0.95528114,0,0)"
       d="m -170.27806,-106.90432 a 2.0832255,1.2624321 0 0 1 -2.21463,1.08709 2.0832255,1.2624321 0 0 1 -1.93232,-1.26952 l 2.08315,0.0104 z" />
  </g>
</svg>
